<svg id="flat" height="512" viewBox="0 0 512 512" width="512" xmlns="http://www.w3.org/2000/svg"><path d="m256 360-24 96h-16v-96z" fill="#bed3f7"/><path d="m216 280h272v80h-272z" fill="#e0edff"/><g fill="#bed3f7"><circle cx="424" cy="320" r="8"/><circle cx="280" cy="320" r="8"/><path d="m448 360 24 96h16v-96z"/></g><path d="m344 280h16v80h-16z" fill="#d1e4ff"/><path d="m216 64h272v176h-272z" fill="#548aff"/><path d="m112 72-11.02944-11.02944a16.97054 16.97054 0 0 0 -12-4.97056 16.97054 16.97054 0 0 0 -16.97056 16.97055v34.18507a53.8962 53.8962 0 0 1 -24 44.84438h15.20785a40 40 0 0 0 39.22323-32.15535l1.56892-7.8446z" fill="#b1712c"/><path d="m112 103.999 16-15.999h24v24a24 24 0 0 1 -24 24 24 24 0 0 1 -24-24v-8z" fill="#ffceb6"/><path d="m152 88a24 24 0 0 0 -24-24 24 24 0 0 0 -24 24v16l8-.001 16-15.999z" fill="#c78640"/><path d="m144 232v-24l1.68918-.84459a25.88851 25.88851 0 0 0 14.31082-23.15541v-48h-48a24 24 0 0 0 -24 24v72z" fill="#ef5e3b"/><path d="m232 424-32 16-24-112-32.05-23.32007-42.77-31.09985a31.9967 31.9967 0 0 1 -13.18-25.88008v-15.7h56l38.45 34.17993 22.3 19.82007a40.06125 40.06125 0 0 1 13.12012 24.93994z" fill="#ffceb6"/><path d="m145.53491 180.07155 78.46509-12.07155 16 8h4a20 20 0 0 0 20-20 20 20 0 0 0 -20-20h-101.83538a22.16462 22.16462 0 0 0 -22.16462 22.16462 22.16462 22.16462 0 0 0 25.53491 21.90693z" fill="#ffceb6"/><path d="m30.857 399.429-6.857 8.571 24 48h16v-40z" fill="#e0edff"/><path d="m144 248-10.65991 64-3.44019 20.62012a40.035 40.035 0 0 1 -9.55981 20l-56.34009 63.37988-33.14014-16.57007 57.14014-71.42993v-80z" fill="#ffceb6"/><path d="m200 440 32-16 32 16v16h-64z" fill="#e0edff"/><path d="m144 248-10.66 64h-45.34v-64z" fill="#ffa100"/><path d="m182.45 266.17993-38.5 38.5-42.77-31.09985a31.9967 31.9967 0 0 1 -13.18-25.88008v-15.7h56z" fill="#ffb401"/><path d="m248 240v40h16l16-40z" fill="#718799"/><path d="m456 240v40h-16l-16-40z" fill="#718799"/><path d="m336 120v64l40-32z" fill="#91c0ff"/></svg>